<mxfile host="app.diagrams.net" modified="2021-03-27T06:28:26.820Z" agent="5.0 (X11; Linux x86_64) AppleWebKit/537.36 (KHTML, like Gecko) Chrome/89.0.4389.90 Safari/537.36" etag="OvcwbSRPHp8TJ0yXPY6D" version="14.4.3" type="github">
  <diagram id="4abeiDv1NOWrEsaSBZQl" name="Page-1">
    <mxGraphModel dx="1021" dy="544" grid="1" gridSize="10" guides="1" tooltips="1" connect="1" arrows="1" fold="1" page="1" pageScale="1" pageWidth="1200" pageHeight="1600" math="0" shadow="0">
      <root>
        <mxCell id="0" />
        <mxCell id="1" parent="0" />
        <mxCell id="gk1ptdMLT29ZNZ7Cg3Ny-3" value="Guest" style="shape=umlActor;html=1;verticalLabelPosition=bottom;verticalAlign=top;align=center;" vertex="1" parent="1">
          <mxGeometry x="240" y="630" width="30" height="60" as="geometry" />
        </mxCell>
        <mxCell id="gk1ptdMLT29ZNZ7Cg3Ny-5" value="Customer User" style="shape=umlActor;html=1;verticalLabelPosition=bottom;verticalAlign=top;align=center;" vertex="1" parent="1">
          <mxGeometry x="240" y="880" width="30" height="60" as="geometry" />
        </mxCell>
        <mxCell id="gk1ptdMLT29ZNZ7Cg3Ny-7" value="Stocker" style="shape=umlActor;html=1;verticalLabelPosition=bottom;verticalAlign=top;align=center;" vertex="1" parent="1">
          <mxGeometry x="1030" y="630" width="30" height="60" as="geometry" />
        </mxCell>
        <mxCell id="gk1ptdMLT29ZNZ7Cg3Ny-8" value="System Admin" style="shape=umlActor;html=1;verticalLabelPosition=bottom;verticalAlign=top;align=center;" vertex="1" parent="1">
          <mxGeometry x="1010" y="850" width="30" height="60" as="geometry" />
        </mxCell>
        <mxCell id="gk1ptdMLT29ZNZ7Cg3Ny-9" value="Delivery System" style="shape=umlActor;html=1;verticalLabelPosition=bottom;verticalAlign=top;align=center;" vertex="1" parent="1">
          <mxGeometry x="999" y="1070" width="30" height="60" as="geometry" />
        </mxCell>
        <mxCell id="gk1ptdMLT29ZNZ7Cg3Ny-12" value="Complaint settlement staff" style="shape=umlActor;html=1;verticalLabelPosition=bottom;verticalAlign=top;align=center;" vertex="1" parent="1">
          <mxGeometry x="239" y="1040" width="30" height="60" as="geometry" />
        </mxCell>
        <mxCell id="gk1ptdMLT29ZNZ7Cg3Ny-13" value="View" style="shape=ellipse;html=1;strokeWidth=3;fontStyle=1;whiteSpace=wrap;align=center;perimeter=ellipsePerimeter;" vertex="1" parent="1">
          <mxGeometry x="400" y="640" width="120" height="60" as="geometry" />
        </mxCell>
        <mxCell id="gk1ptdMLT29ZNZ7Cg3Ny-14" value="Order" style="shape=ellipse;html=1;strokeWidth=3;fontStyle=1;whiteSpace=wrap;align=center;perimeter=ellipsePerimeter;" vertex="1" parent="1">
          <mxGeometry x="670" y="640" width="120" height="60" as="geometry" />
        </mxCell>
        <mxCell id="gk1ptdMLT29ZNZ7Cg3Ny-15" value="&amp;lt;&amp;lt;extend&amp;gt;&amp;gt;" style="edgeStyle=none;html=1;startArrow=open;endArrow=none;startSize=12;verticalAlign=bottom;dashed=1;labelBackgroundColor=none;exitX=1;exitY=0.5;exitDx=0;exitDy=0;entryX=0;entryY=0.5;entryDx=0;entryDy=0;" edge="1" parent="1" source="gk1ptdMLT29ZNZ7Cg3Ny-13" target="gk1ptdMLT29ZNZ7Cg3Ny-14">
          <mxGeometry width="160" relative="1" as="geometry">
            <mxPoint x="520" y="890" as="sourcePoint" />
            <mxPoint x="680" y="890" as="targetPoint" />
          </mxGeometry>
        </mxCell>
        <mxCell id="gk1ptdMLT29ZNZ7Cg3Ny-16" value="" style="edgeStyle=none;html=1;endArrow=none;verticalAlign=bottom;exitX=0.5;exitY=0.5;exitDx=0;exitDy=0;exitPerimeter=0;entryX=0;entryY=0.5;entryDx=0;entryDy=0;" edge="1" parent="1" source="gk1ptdMLT29ZNZ7Cg3Ny-3" target="gk1ptdMLT29ZNZ7Cg3Ny-13">
          <mxGeometry width="160" relative="1" as="geometry">
            <mxPoint x="510" y="890" as="sourcePoint" />
            <mxPoint x="680" y="890" as="targetPoint" />
          </mxGeometry>
        </mxCell>
        <mxCell id="gk1ptdMLT29ZNZ7Cg3Ny-17" value="Sign up" style="shape=ellipse;html=1;strokeWidth=3;fontStyle=1;whiteSpace=wrap;align=center;perimeter=ellipsePerimeter;" vertex="1" parent="1">
          <mxGeometry x="400" y="770" width="120" height="60" as="geometry" />
        </mxCell>
        <mxCell id="gk1ptdMLT29ZNZ7Cg3Ny-18" value="" style="edgeStyle=none;html=1;endArrow=none;verticalAlign=bottom;exitX=0.5;exitY=0.5;exitDx=0;exitDy=0;exitPerimeter=0;entryX=0;entryY=0.5;entryDx=0;entryDy=0;" edge="1" parent="1" source="gk1ptdMLT29ZNZ7Cg3Ny-3" target="gk1ptdMLT29ZNZ7Cg3Ny-17">
          <mxGeometry width="160" relative="1" as="geometry">
            <mxPoint x="520" y="890" as="sourcePoint" />
            <mxPoint x="680" y="890" as="targetPoint" />
          </mxGeometry>
        </mxCell>
        <mxCell id="gk1ptdMLT29ZNZ7Cg3Ny-19" value="Sign in" style="shape=ellipse;html=1;strokeWidth=3;fontStyle=1;whiteSpace=wrap;align=center;perimeter=ellipsePerimeter;" vertex="1" parent="1">
          <mxGeometry x="410" y="860" width="120" height="60" as="geometry" />
        </mxCell>
        <mxCell id="gk1ptdMLT29ZNZ7Cg3Ny-20" value="" style="edgeStyle=none;html=1;endArrow=none;verticalAlign=bottom;exitX=0.5;exitY=0.5;exitDx=0;exitDy=0;exitPerimeter=0;entryX=0;entryY=0.5;entryDx=0;entryDy=0;" edge="1" parent="1" source="gk1ptdMLT29ZNZ7Cg3Ny-5" target="gk1ptdMLT29ZNZ7Cg3Ny-19">
          <mxGeometry width="160" relative="1" as="geometry">
            <mxPoint x="520" y="890" as="sourcePoint" />
            <mxPoint x="680" y="890" as="targetPoint" />
          </mxGeometry>
        </mxCell>
        <mxCell id="gk1ptdMLT29ZNZ7Cg3Ny-21" value="" style="edgeStyle=none;html=1;endArrow=block;endFill=0;endSize=12;verticalAlign=bottom;exitX=0.5;exitY=0;exitDx=0;exitDy=0;exitPerimeter=0;entryX=0;entryY=1;entryDx=0;entryDy=0;entryPerimeter=0;" edge="1" parent="1" source="gk1ptdMLT29ZNZ7Cg3Ny-5" target="gk1ptdMLT29ZNZ7Cg3Ny-3">
          <mxGeometry width="160" relative="1" as="geometry">
            <mxPoint x="520" y="830" as="sourcePoint" />
            <mxPoint x="680" y="830" as="targetPoint" />
          </mxGeometry>
        </mxCell>
      </root>
    </mxGraphModel>
  </diagram>
</mxfile>
